<?xml version="1.0" encoding="utf-8"?>
<svg viewBox="183.359 175.9 119.892 63.911" width="119.892" height="63.911" xmlns="http://www.w3.org/2000/svg">
  <path d="M 196.529 201.408 C 194.429 201.408 193.379 200.043 193.379 197.348 L 193.379 190.908 C 193.379 188.213 194.429 186.848 196.529 186.848 C 197.824 186.848 198.874 187.443 199.749 188.633 C 200.134 189.158 200.589 189.263 201.114 188.913 L 203.529 187.198 C 204.054 186.813 204.159 186.393 203.809 185.868 C 202.164 183.348 199.749 182.088 196.529 182.088 C 191.034 182.088 187.919 185.063 187.919 190.488 L 187.919 197.768 C 187.919 203.193 191.034 206.168 196.529 206.168 C 199.749 206.168 202.164 204.908 203.809 202.388 C 204.159 201.863 204.054 201.443 203.529 201.058 L 201.114 199.343 C 200.589 198.993 200.134 199.098 199.749 199.623 C 198.839 200.813 197.754 201.408 196.529 201.408 Z M 210.312 205.748 C 210.977 205.748 211.292 205.433 211.292 204.768 L 211.292 182.228 C 211.292 181.563 210.977 181.248 210.312 181.248 L 207.302 181.248 C 206.637 181.248 206.322 181.563 206.322 182.228 L 206.322 204.768 C 206.322 205.433 206.637 205.748 207.302 205.748 L 210.312 205.748 Z M 219.412 185.168 C 219.937 184.643 220.217 183.943 220.217 183.138 C 220.217 182.333 219.937 181.668 219.412 181.143 C 218.887 180.618 218.222 180.338 217.417 180.338 C 216.612 180.338 215.912 180.618 215.387 181.143 C 214.862 181.668 214.617 182.333 214.617 183.138 C 214.617 183.943 214.862 184.643 215.387 185.168 C 215.912 185.693 216.612 185.938 217.417 185.938 C 218.222 185.938 218.887 185.693 219.412 185.168 Z M 218.922 205.748 C 219.587 205.748 219.902 205.433 219.902 204.768 L 219.902 189.228 C 219.902 188.563 219.587 188.248 218.922 188.248 L 215.912 188.248 C 215.247 188.248 214.932 188.563 214.932 189.228 L 214.932 204.768 C 214.932 205.433 215.247 205.748 215.912 205.748 Z M 237.542 194.548 C 237.542 190.243 234.987 187.828 230.472 187.828 C 225.957 187.828 223.402 190.243 223.402 194.548 L 223.402 210.368 C 223.402 211.033 223.717 211.348 224.382 211.348 L 227.392 211.348 C 228.057 211.348 228.372 211.033 228.372 210.368 L 228.372 205.188 L 228.442 205.188 C 229.177 205.853 230.192 206.168 231.417 206.168 C 235.372 206.168 237.542 203.753 237.542 199.448 Z M 232.572 199.168 C 232.572 200.988 231.872 201.898 230.472 201.898 C 229.072 201.898 228.372 200.988 228.372 199.168 L 228.372 194.828 C 228.372 193.008 229.072 192.098 230.472 192.098 C 231.872 192.098 232.572 193.008 232.572 194.828 Z M 254.692 194.548 C 254.692 190.243 252.137 187.828 247.622 187.828 C 243.107 187.828 240.552 190.243 240.552 194.548 L 240.552 210.368 C 240.552 211.033 240.867 211.348 241.532 211.348 L 244.542 211.348 C 245.207 211.348 245.522 211.033 245.522 210.368 L 245.522 205.188 L 245.592 205.188 C 246.327 205.853 247.342 206.168 248.567 206.168 C 252.522 206.168 254.692 203.753 254.692 199.448 Z M 249.722 199.168 C 249.722 200.988 249.022 201.898 247.622 201.898 C 246.222 201.898 245.522 200.988 245.522 199.168 L 245.522 194.828 C 245.522 193.008 246.222 192.098 247.622 192.098 C 249.022 192.098 249.722 193.008 249.722 194.828 Z M 262.321 185.168 C 262.846 184.643 263.126 183.943 263.126 183.138 C 263.126 182.333 262.846 181.668 262.321 181.143 C 261.796 180.618 261.131 180.338 260.326 180.338 C 259.521 180.338 258.821 180.618 258.296 181.143 C 257.771 181.668 257.526 182.333 257.526 183.138 C 257.526 183.943 257.771 184.643 258.296 185.168 C 258.821 185.693 259.521 185.938 260.326 185.938 C 261.131 185.938 261.796 185.693 262.321 185.168 Z M 261.831 205.748 C 262.496 205.748 262.811 205.433 262.811 204.768 L 262.811 189.228 C 262.811 188.563 262.496 188.248 261.831 188.248 L 258.821 188.248 C 258.156 188.248 257.841 188.563 257.841 189.228 L 257.841 204.768 C 257.841 205.433 258.156 205.748 258.821 205.748 Z M 275.201 204.768 C 275.201 205.433 275.516 205.748 276.181 205.748 L 279.191 205.748 C 279.856 205.748 280.171 205.433 280.171 204.768 L 280.171 194.443 C 280.171 190.208 277.686 187.828 273.241 187.828 C 268.796 187.828 266.311 190.208 266.311 194.443 L 266.311 204.768 C 266.311 205.433 266.626 205.748 267.291 205.748 L 270.301 205.748 C 270.966 205.748 271.281 205.433 271.281 204.768 L 271.281 194.688 C 271.281 192.973 271.946 192.098 273.241 192.098 C 274.536 192.098 275.201 192.973 275.201 194.688 L 275.201 204.768 Z M 297.321 194.548 C 297.321 190.243 294.766 187.828 290.251 187.828 C 285.736 187.828 283.181 190.243 283.181 194.548 L 283.181 198.713 C 283.181 203.018 285.351 205.433 289.306 205.433 C 290.531 205.433 291.511 205.118 292.281 204.453 L 292.351 204.453 L 292.351 205.118 C 292.351 206.728 291.511 207.533 289.831 207.533 C 288.746 207.533 287.696 207.183 286.681 206.448 C 286.121 206.063 285.666 206.133 285.316 206.728 L 284.126 208.723 C 283.811 209.248 283.881 209.703 284.371 210.088 C 285.876 211.208 287.801 211.768 290.146 211.768 C 294.661 211.768 297.321 209.353 297.321 205.188 Z M 292.351 198.433 C 292.351 200.253 291.651 201.163 290.251 201.163 C 288.851 201.163 288.151 200.253 288.151 198.433 L 288.151 194.828 C 288.151 193.008 288.851 192.098 290.251 192.098 C 291.651 192.098 292.351 193.008 292.351 194.828 Z" style="fill: rgb(51, 51, 51);"/>
  <path d="M 195.585 215.877 Q 195.585 216.471 194.793 216.625 Q 193.759 216.823 193.517 217.087 Q 191.053 219.683 191.053 223.797 Q 191.053 225.733 191.669 227.449 Q 192.175 228.857 192.395 229.297 Q 192.945 230.375 193.737 230.837 Q 194.067 230.991 194.397 231.123 Q 194.749 231.321 194.749 231.673 Q 194.749 232.025 194.518 232.311 Q 194.287 232.597 194.023 232.531 Q 193.737 232.487 193.143 232.245 Q 192.087 231.629 190.855 229.627 Q 190.547 229.121 190.228 228.582 Q 189.909 228.043 189.755 227.559 Q 189.645 227.207 189.381 224.721 Q 189.293 223.951 189.293 223.225 Q 189.293 219.331 191.559 216.603 Q 192.879 215.019 194.309 215.019 Q 194.925 215.019 195.431 215.393 Q 195.585 215.503 195.585 215.877 Z M 202.733 224.391 Q 201.435 227.317 199.059 227.867 Q 198.773 227.933 198.487 227.933 Q 197.233 227.933 195.957 226.569 Q 195.099 225.645 195.099 224.171 Q 195.099 222.543 196.067 220.673 Q 196.485 219.881 197.079 219.309 Q 197.761 218.627 198.377 218.627 Q 198.729 218.627 199.037 218.891 Q 199.345 219.155 200.687 219.595 Q 201.743 219.947 202.183 220.783 Q 202.953 222.257 202.953 223.313 Q 202.953 223.907 202.733 224.391 Z M 200.973 223.027 Q 200.819 221.421 200.115 221.113 Q 200.005 221.069 199.917 221.069 Q 199.653 221.069 199.257 221.509 Q 198.817 222.015 198.575 222.103 Q 198.421 222.169 198.135 221.971 Q 197.849 221.773 197.761 221.773 Q 197.695 221.773 197.651 221.817 Q 196.881 222.477 196.881 223.863 Q 196.881 224.809 197.321 225.469 Q 197.937 226.371 198.355 226.371 Q 199.323 226.371 200.225 225.161 Q 201.083 224.017 200.973 223.027 Z M 210.057 226.591 Q 210.013 226.613 207.483 228.417 Q 206.009 229.473 204.865 229.979 Q 204.733 230.045 204.601 230.045 Q 204.293 230.045 204.029 229.649 Q 203.633 229.121 203.611 229.099 Q 203.567 227.163 203.853 223.709 Q 204.183 220.035 204.183 218.407 Q 204.183 217.285 204.095 216.295 Q 204.381 216.009 204.821 216.009 Q 205.657 216.009 205.789 216.625 Q 205.855 218.429 205.635 222.026 Q 205.415 225.623 205.459 227.427 Q 206.075 227.163 207.065 226.503 Q 208.143 225.755 208.627 225.513 Q 208.737 225.513 209.012 225.469 Q 209.287 225.425 209.419 225.425 Q 209.859 225.425 210.057 225.777 Q 210.321 226.261 210.057 226.591 Z M 218.588 228.087 Q 218.72 228.439 218.72 228.703 Q 218.72 229.143 218.346 229.473 Q 217.972 229.803 217.84 229.781 Q 216.762 229.583 216.476 228.043 Q 216.168 226.371 215.75 225.249 Q 215.002 225.315 214.254 225.381 Q 213.396 225.491 212.912 225.909 Q 212.67 226.591 212.274 228.329 Q 211.9 229.935 211.548 230.771 Q 211.372 231.167 210.8 230.991 Q 210.074 230.749 210.03 230.331 Q 209.964 229.495 210.514 228.087 Q 211.174 226.481 211.24 225.799 Q 211.262 225.601 210.954 225.359 Q 210.646 225.117 210.646 224.985 Q 210.646 224.875 210.745 224.754 Q 210.844 224.633 211.207 224.556 Q 211.57 224.479 211.614 224.325 Q 212.01 223.225 212.868 220.233 Q 213.594 217.637 214.166 216.251 Q 214.298 215.943 214.716 215.943 Q 215.024 215.943 215.266 216.141 Q 215.882 216.669 216.058 217.725 Q 216.19 218.627 216.3 219.529 Q 217.4 224.721 218.588 228.087 Z M 215.376 223.885 Q 215.31 223.071 215.09 222.059 Q 214.87 221.179 214.672 220.299 Q 214.012 222.125 213.528 223.951 Q 213.88 223.885 215.376 223.885 Z M 226.926 219.573 Q 226.64 220.761 225.474 221.729 Q 224.352 222.521 223.23 223.291 Q 223.296 223.621 223.681 223.786 Q 224.066 223.951 224.418 224.105 Q 226.244 225.293 226.244 226.921 Q 226.244 228.175 225.386 229.231 Q 224.726 230.045 223.428 230.837 Q 222.372 231.453 221.316 232.069 Q 221.052 232.223 220.744 232.223 Q 220.018 232.223 219.732 231.629 Q 219.776 229.781 219.82 227.955 Q 219.864 225.755 220.062 224.325 Q 219.6 224.017 219.6 223.621 Q 219.6 223.423 219.765 223.258 Q 219.93 223.093 220.216 222.895 Q 220.48 219.551 220.326 216.735 Q 219.292 216.537 218.962 215.811 Q 218.94 215.723 219.039 215.547 Q 219.138 215.371 219.138 215.261 Q 219.644 214.887 220.26 214.887 Q 220.7 214.887 222.284 215.173 Q 223.098 215.305 223.978 215.767 Q 226.354 216.999 226.772 218.165 Q 227.058 219.001 226.926 219.573 Z M 224.858 218.473 Q 224.748 217.659 223.538 217.219 Q 223.362 217.153 222.988 216.933 Q 222.724 216.757 222.548 216.757 Q 222.46 216.757 222.35 216.801 Q 222.328 217.175 222.328 217.593 Q 222.328 218.165 222.416 219.529 Q 222.482 220.783 222.46 221.487 Q 222.614 221.487 222.922 221.256 Q 223.23 221.025 223.274 221.003 Q 223.934 220.695 224.44 219.969 Q 224.946 219.243 224.858 218.473 Z M 224.198 227.097 Q 224.242 226.855 224.242 226.635 Q 224.242 225.975 223.824 225.469 Q 222.702 224.919 222.394 224.919 Q 222.218 224.919 222.064 224.985 Q 222.086 225.205 222.086 225.469 Q 222.086 225.931 221.965 226.888 Q 221.844 227.845 221.844 228.329 Q 221.844 229.033 222.02 229.605 Q 222.284 229.297 222.845 228.956 Q 223.406 228.615 223.626 228.351 Q 224.022 227.889 224.198 227.097 Z M 242.654 215.811 Q 242.346 218.759 242.06 221.729 Q 241.686 225.249 241.686 227.603 Q 241.686 228.373 241.73 229.121 Q 241.752 229.473 241.477 229.737 Q 241.202 230.001 240.85 230.001 Q 240.168 230.001 239.706 229.077 Q 238.298 226.327 236.208 220.453 Q 236.164 220.321 236.098 220.321 Q 235.944 220.321 235.9 220.629 Q 235.526 223.775 235.526 227.251 Q 235.526 228.923 235.614 230.661 Q 235.636 231.299 235.24 231.541 Q 235.086 231.695 234.91 231.695 Q 234.756 231.695 234.514 231.563 Q 234.184 231.409 234.096 231.365 Q 233.81 231.277 233.744 230.837 Q 233.722 230.485 233.7 230.111 Q 233.634 228.879 233.634 227.537 Q 233.634 225.205 233.898 221.707 Q 234.316 216.383 234.36 215.811 Q 234.382 215.327 235.174 215.327 Q 235.548 215.283 236.274 215.877 Q 236.978 217.219 238.012 220.233 Q 239.002 223.115 239.816 224.611 Q 240.146 221.685 240.85 215.767 Q 240.916 215.327 241.488 215.327 Q 241.686 215.327 241.95 215.393 Q 242.302 215.481 242.368 215.503 Q 242.588 215.591 242.654 215.811 Z M 251.692 228.087 Q 251.824 228.439 251.824 228.703 Q 251.824 229.143 251.45 229.473 Q 251.076 229.803 250.944 229.781 Q 249.866 229.583 249.58 228.043 Q 249.272 226.371 248.854 225.249 Q 248.106 225.315 247.358 225.381 Q 246.5 225.491 246.016 225.909 Q 245.774 226.591 245.378 228.329 Q 245.004 229.935 244.652 230.771 Q 244.476 231.167 243.904 230.991 Q 243.178 230.749 243.134 230.331 Q 243.068 229.495 243.618 228.087 Q 244.278 226.481 244.344 225.799 Q 244.366 225.601 244.058 225.359 Q 243.75 225.117 243.75 224.985 Q 243.75 224.875 243.849 224.754 Q 243.948 224.633 244.311 224.556 Q 244.674 224.479 244.718 224.325 Q 245.114 223.225 245.972 220.233 Q 246.698 217.637 247.27 216.251 Q 247.402 215.943 247.82 215.943 Q 248.128 215.943 248.37 216.141 Q 248.986 216.669 249.162 217.725 Q 249.294 218.627 249.404 219.529 Q 250.504 224.721 251.692 228.087 Z M 248.48 223.885 Q 248.414 223.071 248.194 222.059 Q 247.974 221.179 247.776 220.299 Q 247.116 222.125 246.632 223.951 Q 246.984 223.885 248.48 223.885 Z M 268.808 229.517 Q 268.896 229.957 268.17 230.001 Q 267.686 230.023 267.18 229.583 Q 266.762 229.209 266.52 228.373 Q 266.3 227.603 266.256 226.195 Q 266.212 224.611 266.102 224.017 Q 265.816 225.007 265.156 226.965 Q 264.76 228.043 264.672 228.197 Q 264.32 228.879 263.792 228.813 Q 262.736 228.571 262.164 227.625 Q 261.79 227.009 261.46 225.667 Q 261.108 224.193 260.866 223.687 Q 259.92 228.285 258.842 230.551 Q 258.688 230.881 257.918 230.507 Q 257.28 230.199 257.28 229.627 Q 257.28 229.429 257.742 228.219 Q 257.94 227.691 259.282 223.137 Q 259.744 221.553 260.25 217.571 Q 260.294 217.527 260.47 217.109 Q 260.58 216.801 260.866 216.801 Q 261.614 216.801 261.9 217.087 Q 261.9 217.725 262.109 219.144 Q 262.318 220.563 262.318 221.289 Q 262.516 222.521 262.692 223.775 Q 262.934 225.183 263.572 226.085 Q 265.684 220.211 266.256 216.801 Q 266.344 216.449 266.916 216.449 Q 267.73 216.449 267.84 216.977 Q 267.994 217.769 267.994 218.803 Q 267.994 219.133 267.95 220.255 Q 267.928 221.157 267.95 221.729 Q 268.148 226.371 268.808 229.517 Z M 273.713 213.457 Q 273.603 215.041 271.601 217.263 Q 271.931 217.329 272.151 217.461 Q 272.239 217.395 272.283 217.395 Q 272.349 217.395 272.349 217.615 Q 272.327 217.879 272.349 217.923 Q 272.371 217.989 272.415 218.011 Q 272.459 218.649 272.459 219.331 Q 272.459 220.827 272.151 223.841 Q 271.843 226.855 271.843 228.395 Q 271.843 228.967 271.865 229.517 Q 271.667 230.133 271.007 230.111 Q 270.061 230.067 269.973 229.297 Q 269.885 228.527 269.885 227.669 Q 269.885 226.173 270.259 223.005 Q 270.633 219.969 270.589 218.363 Q 270.369 218.605 270.237 218.803 Q 269.885 219.287 268.873 219.089 Q 268.565 219.023 268.565 218.737 Q 268.565 218.517 268.807 218.033 Q 269.357 216.933 270.479 215.327 Q 271.975 213.171 272.305 212.643 Q 272.437 212.445 272.679 212.445 Q 273.031 212.445 273.383 212.786 Q 273.735 213.127 273.713 213.457 Z M 280.029 224.281 Q 279.809 224.787 279.611 225.293 Q 279.347 225.887 279.039 226.239 Q 278.357 227.097 277.675 227.933 Q 276.861 228.945 276.201 229.341 Q 275.981 229.605 275.717 229.891 Q 275.453 230.177 275.189 230.177 Q 275.057 230.177 274.881 230.111 Q 274.705 230.045 274.496 229.957 Q 274.287 229.869 274.199 229.671 Q 274.133 228.747 274.133 227.691 Q 274.133 226.613 274.221 224.479 Q 274.309 222.345 274.309 221.267 Q 274.309 219.837 274.199 218.649 Q 274.177 218.627 273.715 218.143 Q 273.429 217.857 273.429 217.615 Q 273.429 217.505 273.473 217.395 Q 273.583 217.131 273.957 217.087 Q 274.243 217.043 274.529 217.021 Q 276.377 217.417 278.401 219.089 Q 278.929 219.529 279.259 220.013 Q 280.315 221.575 280.315 222.939 Q 280.315 223.643 280.029 224.281 Z M 278.445 221.927 Q 278.247 220.541 276.091 219.485 Q 275.937 223.159 276.003 227.273 Q 278.489 224.787 278.489 222.543 Q 278.489 222.235 278.445 221.927 Z M 283.853 218.011 Q 283.897 218.649 283.897 219.331 Q 283.897 220.827 283.589 223.841 Q 283.281 226.855 283.281 228.395 Q 283.281 228.967 283.303 229.517 Q 283.105 230.133 282.445 230.111 Q 281.499 230.067 281.411 229.297 Q 281.323 228.527 281.323 227.669 Q 281.323 226.173 281.686 223.203 Q 282.049 220.233 282.049 218.759 Q 282.049 218.187 282.005 217.637 Q 282.225 217.219 282.753 217.219 Q 283.171 217.219 283.589 217.461 Q 283.677 217.395 283.721 217.395 Q 283.787 217.395 283.787 217.615 Q 283.765 217.879 283.787 217.923 Q 283.809 217.989 283.853 218.011 Z M 293.008 228.087 Q 293.14 228.439 293.14 228.703 Q 293.14 229.143 292.766 229.473 Q 292.392 229.803 292.26 229.781 Q 291.182 229.583 290.896 228.043 Q 290.588 226.371 290.17 225.249 Q 289.422 225.315 288.674 225.381 Q 287.816 225.491 287.332 225.909 Q 287.09 226.591 286.694 228.329 Q 286.32 229.935 285.968 230.771 Q 285.792 231.167 285.22 230.991 Q 284.494 230.749 284.45 230.331 Q 284.384 229.495 284.934 228.087 Q 285.594 226.481 285.66 225.799 Q 285.682 225.601 285.374 225.359 Q 285.066 225.117 285.066 224.985 Q 285.066 224.875 285.165 224.754 Q 285.264 224.633 285.627 224.556 Q 285.99 224.479 286.034 224.325 Q 286.43 223.225 287.288 220.233 Q 288.014 217.637 288.586 216.251 Q 288.718 215.943 289.136 215.943 Q 289.444 215.943 289.686 216.141 Q 290.302 216.669 290.478 217.725 Q 290.61 218.627 290.72 219.529 Q 291.82 224.721 293.008 228.087 Z M 289.796 223.885 Q 289.73 223.071 289.51 222.059 Q 289.29 221.179 289.092 220.299 Q 288.432 222.125 287.948 223.951 Q 288.3 223.885 289.796 223.885 Z" style="fill: rgb(51, 51, 51);"/>
</svg>