<svg id="Camada_1" data-name="Camada 1" xmlns="http://www.w3.org/2000/svg" viewBox="0 0 133 53.29"><defs><style>.cls-1{isolation:isolate;}</style></defs><title>logo_midia</title><g class="cls-1"><path d="M39.39,37.13c0,.39-.27.64-.79.75a2.58,2.58,0,0,0-1.28.46,9.34,9.34,0,0,0-2.46,6.71,10.76,10.76,0,0,0,.61,3.65c.34.94.58,1.55.73,1.85a3.61,3.61,0,0,0,1.34,1.54l.66.28a.62.62,0,0,1,.35.55,1,1,0,0,1-.23.64.48.48,0,0,1-.49.22,3.94,3.94,0,0,1-.88-.29,7.56,7.56,0,0,1-2.29-2.61L34,49.83a5.06,5.06,0,0,1-.47-1A26.46,26.46,0,0,1,33.18,46c0-.51-.08-1-.08-1.5a10,10,0,0,1,2.26-6.62,3.69,3.69,0,0,1,2.75-1.58,1.82,1.82,0,0,1,1.12.37C39.34,36.72,39.39,36.88,39.39,37.13Z" transform="translate(-3.97 -0.5)"/><path d="M46.54,45.64a5.48,5.48,0,0,1-3.68,3.48,2.76,2.76,0,0,1-.57.06,3.58,3.58,0,0,1-2.53-1.36,3.41,3.41,0,0,1-.86-2.4,7.73,7.73,0,0,1,1-3.5,5.41,5.41,0,0,1,1-1.36,1.91,1.91,0,0,1,1.3-.68,1,1,0,0,1,.66.26,6,6,0,0,0,1.65.7A2.54,2.54,0,0,1,46,42a5.77,5.77,0,0,1,.77,2.53A2.67,2.67,0,0,1,46.54,45.64Zm-1.76-1.36c-.1-1.07-.39-1.71-.86-1.92a.51.51,0,0,0-.2,0c-.17,0-.39.15-.66.44a2,2,0,0,1-.68.59c-.1,0-.25,0-.44-.13a1.11,1.11,0,0,0-.37-.2.14.14,0,0,0-.11,0,2.52,2.52,0,0,0-.77,2,2.79,2.79,0,0,0,.44,1.61c.41.6.75.9,1,.9A2.43,2.43,0,0,0,44,46.41,3.06,3.06,0,0,0,44.78,44.28Z" transform="translate(-3.97 -0.5)"/><path d="M53.86,47.85s-.88.62-2.57,1.83a15.13,15.13,0,0,1-2.62,1.57.63.63,0,0,1-.26.07.72.72,0,0,1-.57-.4l-.42-.55q0-1.93.24-5.4Q48,41.3,48,39.66c0-.75,0-1.45-.09-2.12a1,1,0,0,1,.73-.28c.56,0,.88.2,1,.62,0,1.2,0,3-.16,5.4s-.2,4.19-.17,5.4a11.31,11.31,0,0,0,1.6-.93,15,15,0,0,1,1.56-1,2.51,2.51,0,0,0,.39,0,2.93,2.93,0,0,1,.41,0,.66.66,0,0,1,.63.36A.69.69,0,0,1,53.86,47.85Z" transform="translate(-3.97 -0.5)"/><path d="M62.42,49.34a1.72,1.72,0,0,1,.13.61,1,1,0,0,1-.37.77c-.25.22-.42.32-.51.31-.72-.13-1.17-.71-1.36-1.74a17.35,17.35,0,0,0-.73-2.79l-1.49.13a2.45,2.45,0,0,0-1.34.53,21.12,21.12,0,0,0-.64,2.42A15.52,15.52,0,0,1,55.38,52c-.12.26-.37.34-.75.22s-.74-.38-.77-.66a5.43,5.43,0,0,1,.49-2.24,9.37,9.37,0,0,0,.72-2.29c0-.13-.08-.28-.28-.44s-.31-.29-.31-.38a.36.36,0,0,1,.1-.23.83.83,0,0,1,.46-.19c.24-.06.38-.13.41-.24.26-.73.68-2.09,1.25-4.09a39,39,0,0,1,1.3-4,.53.53,0,0,1,.55-.31.87.87,0,0,1,.55.2A2.56,2.56,0,0,1,59.89,39c.09.61.17,1.21.24,1.81A71.87,71.87,0,0,0,62.42,49.34Zm-3.21-4.21a12.81,12.81,0,0,0-.29-1.82c-.14-.59-.28-1.17-.41-1.76-.44,1.22-.83,2.43-1.15,3.65A15.08,15.08,0,0,1,59.21,45.13Z" transform="translate(-3.97 -0.5)"/><path d="M70.76,40.82A4.12,4.12,0,0,1,69.31,43q-1.12.8-2.25,1.56a.72.72,0,0,0,.45.5l.74.31a3.39,3.39,0,0,1,1.83,2.82,3.58,3.58,0,0,1-.86,2.31,7.62,7.62,0,0,1-2,1.61l-2.11,1.23a1.16,1.16,0,0,1-.57.15,1,1,0,0,1-1-.59c0-1.23,0-2.46.08-3.68a30.34,30.34,0,0,1,.25-3.63.86.86,0,0,1-.47-.7.51.51,0,0,1,.17-.36,4.05,4.05,0,0,1,.45-.37A46.17,46.17,0,0,0,64.16,38a1.72,1.72,0,0,1-1.36-.92.38.38,0,0,1,.07-.26.62.62,0,0,0,.1-.29,1.84,1.84,0,0,1,1.12-.37,15.26,15.26,0,0,1,2,.28,5.65,5.65,0,0,1,1.69.6q2.39,1.23,2.79,2.4A2.49,2.49,0,0,1,70.76,40.82ZM68,48.35a2.59,2.59,0,0,0,0-.47,1.76,1.76,0,0,0-.42-1.16,4.8,4.8,0,0,0-1.43-.55.88.88,0,0,0-.33.06c0,.15,0,.31,0,.49a12.64,12.64,0,0,1-.12,1.42,12.73,12.73,0,0,0-.12,1.44,4.54,4.54,0,0,0,.17,1.27,3.41,3.41,0,0,1,.83-.64,3.34,3.34,0,0,0,.78-.61A2.9,2.9,0,0,0,68,48.35Zm.66-8.63c-.07-.54-.51-1-1.32-1.25a4.46,4.46,0,0,1-.55-.29.88.88,0,0,0-.44-.17.54.54,0,0,0-.2,0c0,.25,0,.51,0,.79s0,1,.09,1.94.06,1.49,0,2a1,1,0,0,0,.47-.23c.2-.16.32-.24.35-.26a2.89,2.89,0,0,0,1.16-1A2.13,2.13,0,0,0,68.69,39.72Z" transform="translate(-3.97 -0.5)"/><path d="M86.47,37.06q-.31,3-.6,5.92a57,57,0,0,0-.37,5.87c0,.52,0,1,0,1.52a.76.76,0,0,1-.25.62.89.89,0,0,1-.63.26c-.45,0-.83-.31-1.14-.92A77.08,77.08,0,0,1,80,41.7c0-.09-.06-.13-.11-.13s-.17.1-.2.31a56,56,0,0,0-.37,6.62c0,1.12,0,2.25.09,3.41a.9.9,0,0,1-.38.88.46.46,0,0,1-.33.15.84.84,0,0,1-.39-.13l-.42-.2c-.19,0-.31-.23-.35-.52s0-.48,0-.73c0-.82-.06-1.68-.06-2.57q0-2.34.26-5.83.42-5.33.46-5.9c0-.32.29-.48.82-.48.25,0,.61.15,1.1.55a33.79,33.79,0,0,1,1.73,4.35,30.56,30.56,0,0,0,1.81,4.38q.33-2.93,1-8.84c0-.3.26-.44.64-.44a2.08,2.08,0,0,1,.46.06l.42.11A.47.47,0,0,1,86.47,37.06Z" transform="translate(-3.97 -0.5)"/><path d="M95.53,49.34a1.72,1.72,0,0,1,.13.61,1,1,0,0,1-.37.77c-.25.22-.42.32-.51.31-.72-.13-1.17-.71-1.36-1.74a17.35,17.35,0,0,0-.73-2.79l-1.49.13a2.48,2.48,0,0,0-1.35.53,24.25,24.25,0,0,0-.63,2.42A16.69,16.69,0,0,1,88.49,52c-.12.26-.37.34-.75.22s-.74-.38-.77-.66a5.43,5.43,0,0,1,.49-2.24,9.37,9.37,0,0,0,.72-2.29c0-.13-.08-.28-.28-.44s-.31-.29-.31-.38a.36.36,0,0,1,.1-.23.83.83,0,0,1,.46-.19c.24-.06.38-.13.41-.24.26-.73.68-2.09,1.25-4.09a36.61,36.61,0,0,1,1.3-4,.53.53,0,0,1,.55-.31.87.87,0,0,1,.55.2A2.56,2.56,0,0,1,93,39c.09.61.17,1.21.24,1.81A71.87,71.87,0,0,0,95.53,49.34Zm-3.21-4.21A14.42,14.42,0,0,0,92,43.31l-.42-1.76c-.44,1.22-.82,2.43-1.14,3.65A15.08,15.08,0,0,1,92.32,45.13Z" transform="translate(-3.97 -0.5)"/><path d="M112.65,50.77c.06.29-.16.45-.64.48a1.43,1.43,0,0,1-1-.42,2.51,2.51,0,0,1-.66-1.21,9.2,9.2,0,0,1-.27-2.18,17.54,17.54,0,0,0-.15-2.17c-.19.66-.51,1.64-1,2.94-.26.72-.42,1.13-.48,1.24-.23.45-.53.66-.88.61A2.51,2.51,0,0,1,106,48.88a7.6,7.6,0,0,1-.7-2,10.85,10.85,0,0,0-.6-2,31.86,31.86,0,0,1-2,6.86c-.1.22-.41.21-.92,0a1,1,0,0,1-.64-.88,7.3,7.3,0,0,1,.46-1.41c.13-.35.65-2,1.54-5.08a41.64,41.64,0,0,0,1-5.57,2.76,2.76,0,0,0,.22-.46.39.39,0,0,1,.39-.31,1.47,1.47,0,0,1,1,.29,15.81,15.81,0,0,0,.21,2,16,16,0,0,1,.21,2.15c.13.82.25,1.65.37,2.48a5.5,5.5,0,0,0,.88,2.31,57.07,57.07,0,0,0,2.68-9.28c.06-.23.28-.35.66-.35.55,0,.85.18.93.53a9.76,9.76,0,0,1,.15,1.82c0,.22,0,.71,0,1.45s0,1.1,0,1.48A48.8,48.8,0,0,0,112.65,50.77Z" transform="translate(-3.97 -0.5)"/><path d="M117.55,34.71a7,7,0,0,1-2.11,3.8,1.86,1.86,0,0,1,.55.2c.06,0,.1-.07.13-.07s.07.08.07.22a.71.71,0,0,0,0,.31s0,.08.06.09c0,.43,0,.87,0,1.32,0,1-.1,2.5-.31,4.51s-.31,3.53-.31,4.55c0,.39,0,.76,0,1.13a.77.77,0,0,1-.85.59c-.63,0-1-.3-1-.81a14.18,14.18,0,0,1-.09-1.63,44.72,44.72,0,0,1,.38-4.67,33.25,33.25,0,0,0,.33-4.64,2.9,2.9,0,0,0-.35.44c-.24.33-.69.42-1.37.29a.35.35,0,0,1-.31-.35,2,2,0,0,1,.25-.71,21.71,21.71,0,0,1,1.67-2.7c1-1.44,1.6-2.34,1.82-2.69a.44.44,0,0,1,.38-.2,1,1,0,0,1,.7.35A.83.83,0,0,1,117.55,34.71Z" transform="translate(-3.97 -0.5)"/><path d="M123.84,45.53l-.41,1a3.78,3.78,0,0,1-.58,1c-.45.57-.9,1.13-1.36,1.69A5.85,5.85,0,0,1,120,50.59c-.15.18-.31.36-.49.55a.73.73,0,0,1-.53.29,1,1,0,0,1-.3-.07l-.39-.15a.57.57,0,0,1-.3-.29q-.06-.93-.06-2t.09-3.21c0-1.42.08-2.49.08-3.21,0-1,0-1.83-.11-2.62l-.48-.51a.79.79,0,0,1-.29-.53.63.63,0,0,1,.05-.22.53.53,0,0,1,.48-.3l.57-.07a9.19,9.19,0,0,1,3.88,2.07,4.53,4.53,0,0,1,.85.92,5.27,5.27,0,0,1,1.06,2.93A3.08,3.08,0,0,1,123.84,45.53Zm-1.58-2.35c-.13-.93-.92-1.74-2.35-2.45q-.16,3.68-.09,7.79c1.66-1.65,2.48-3.23,2.48-4.73A4.17,4.17,0,0,0,122.26,43.18Z" transform="translate(-3.97 -0.5)"/><path d="M127.67,39.26c0,.43,0,.87,0,1.32,0,1-.11,2.5-.31,4.51s-.31,3.53-.31,4.55c0,.39,0,.76,0,1.13a.78.78,0,0,1-.86.59c-.63,0-1-.3-1-.81a14.18,14.18,0,0,1-.09-1.63,40.63,40.63,0,0,1,.36-4.47,38.7,38.7,0,0,0,.37-4.44c0-.38,0-.76-.05-1.12a.78.78,0,0,1,.75-.42,1.68,1.68,0,0,1,.84.24c.06,0,.1-.07.13-.07s.07.08.07.22a.71.71,0,0,0,0,.31S127.64,39.25,127.67,39.26Z" transform="translate(-3.97 -0.5)"/><path d="M136.85,49.34A2,2,0,0,1,137,50a1,1,0,0,1-.38.77c-.25.22-.41.32-.5.31-.72-.13-1.18-.71-1.37-1.74A16.44,16.44,0,0,0,134,46.5l-1.5.13a2.45,2.45,0,0,0-1.34.53c-.16.45-.37,1.26-.64,2.42a16.89,16.89,0,0,1-.72,2.44c-.12.26-.37.34-.75.22s-.74-.38-.77-.66a5.39,5.39,0,0,1,.48-2.24,10,10,0,0,0,.73-2.29c0-.13-.08-.28-.29-.44s-.31-.29-.31-.38A.42.42,0,0,1,129,46a.87.87,0,0,1,.46-.19c.25-.06.38-.13.41-.24.27-.73.68-2.09,1.26-4.09a37,37,0,0,1,1.29-4,.54.54,0,0,1,.55-.31.85.85,0,0,1,.55.2,2.57,2.57,0,0,1,.8,1.58l.24,1.81A68.24,68.24,0,0,0,136.85,49.34Zm-3.22-4.21a14.26,14.26,0,0,0-.28-1.82c-.15-.59-.29-1.17-.42-1.76-.44,1.22-.82,2.43-1.14,3.65A14.86,14.86,0,0,1,133.63,45.13Z" transform="translate(-3.97 -0.5)"/></g><g class="cls-1"><path d="M18.17,23.65a1.08,1.08,0,0,1,1.64-.34l2.9,2.06a1,1,0,0,1,.34,1.6,9.77,9.77,0,0,1-8.74,4.53C7.71,31.5,4,27.93,4,21.42V12.68C4,6.17,7.71,2.6,14.31,2.6a9.78,9.78,0,0,1,8.74,4.54,1,1,0,0,1-.34,1.6l-2.9,2a1.08,1.08,0,0,1-1.64-.33,4.62,4.62,0,0,0-3.86-2.14c-2.52,0-3.78,1.63-3.78,4.87v7.73c0,3.23,1.26,4.87,3.78,4.87A4.78,4.78,0,0,0,18.17,23.65Z" transform="translate(-3.97 -0.5)"/><path d="M27.24,31a1,1,0,0,1-1.17-1.18v-27a1,1,0,0,1,1.17-1.18h3.61A1,1,0,0,1,32,2.77V29.82A1,1,0,0,1,30.85,31Z" transform="translate(-3.97 -0.5)"/><path d="M39.38,7.22a3.33,3.33,0,0,1-2.44-.92A3.33,3.33,0,0,1,36,3.86a3.23,3.23,0,0,1,.92-2.39,3.36,3.36,0,0,1,2.44-1,3.25,3.25,0,0,1,2.39,1,3.26,3.26,0,0,1,1,2.39,3.36,3.36,0,0,1-1,2.44A3.21,3.21,0,0,1,39.38,7.22ZM37.57,31a1,1,0,0,1-1.17-1.18V11.17A1,1,0,0,1,37.57,10h3.62a1,1,0,0,1,1.17,1.17V29.82A1,1,0,0,1,41.19,31Z" transform="translate(-3.97 -0.5)"/><path d="M63.53,23.44c0,5.17-2.6,8.06-7.35,8.06a5.14,5.14,0,0,1-3.57-1.17h-.08v6.21a1,1,0,0,1-1.18,1.18H47.74a1,1,0,0,1-1.18-1.18v-19c0-5.17,3.07-8.07,8.49-8.07s8.48,2.9,8.48,8.07Zm-6-5.55q0-3.27-2.52-3.27t-2.52,3.27V23.1c0,2.19.84,3.28,2.52,3.28s2.52-1.09,2.52-3.28Z" transform="translate(-3.97 -0.5)"/><path d="M84.11,23.44c0,5.17-2.6,8.06-7.35,8.06a5.14,5.14,0,0,1-3.57-1.17h-.08v6.21a1,1,0,0,1-1.18,1.18H68.32a1,1,0,0,1-1.18-1.18v-19c0-5.17,3.07-8.07,8.49-8.07s8.48,2.9,8.48,8.07Zm-6-5.55q0-3.27-2.52-3.27t-2.52,3.27V23.1c0,2.19.84,3.28,2.52,3.28s2.52-1.09,2.52-3.28Z" transform="translate(-3.97 -0.5)"/><path d="M90.87,7.22a3.33,3.33,0,0,1-2.44-.92,3.33,3.33,0,0,1-.92-2.44,3.23,3.23,0,0,1,.92-2.39,3.36,3.36,0,0,1,2.44-1,3.3,3.3,0,0,1,3.36,3.36,3.36,3.36,0,0,1-1,2.44A3.25,3.25,0,0,1,90.87,7.22ZM89.06,31a1,1,0,0,1-1.17-1.18V11.17A1,1,0,0,1,89.06,10h3.62a1,1,0,0,1,1.17,1.17V29.82A1,1,0,0,1,92.68,31Z" transform="translate(-3.97 -0.5)"/><path d="M108.72,17.73c0-2.06-.8-3.11-2.35-3.11S104,15.67,104,17.73V29.82A1,1,0,0,1,102.84,31H99.23a1,1,0,0,1-1.18-1.18V17.43c0-5.08,3-7.94,8.32-7.94s8.32,2.86,8.32,7.94V29.82A1,1,0,0,1,113.51,31H109.9a1,1,0,0,1-1.18-1.18Z" transform="translate(-3.97 -0.5)"/><path d="M135.27,30.33c0,5-3.2,7.9-8.62,7.9a11.34,11.34,0,0,1-6.93-2,1.12,1.12,0,0,1-.29-1.64l1.43-2.39a1,1,0,0,1,1.64-.34,6.31,6.31,0,0,0,3.78,1.3c2,0,3-1,3-2.9v-.79h-.08a5.28,5.28,0,0,1-3.57,1.17c-4.75,0-7.36-2.9-7.36-8.06v-5c0-5.17,3.07-8.07,8.49-8.07s8.49,2.9,8.49,8.07Zm-6-12.44q0-3.27-2.52-3.27t-2.52,3.27v4.33c0,2.19.84,3.28,2.52,3.28s2.52-1.09,2.52-3.28Z" transform="translate(-3.97 -0.5)"/></g></svg>