<svg width="193" height="75" viewBox="0 0 193 75" fill="none" xmlns="http://www.w3.org/2000/svg">
<path d="M37.373 70.1425C36.248 70.1425 35.2793 69.8768 34.4668 69.3456C33.6543 68.8143 33.0293 68.0826 32.5918 67.1503C32.1543 66.218 31.9355 65.1529 31.9355 63.955C31.9355 62.7362 32.1595 61.6607 32.6074 60.7284C33.0605 59.7909 33.6908 59.0591 34.498 58.5331C35.3105 58.0018 36.2585 57.7362 37.3418 57.7362C38.1855 57.7362 38.946 57.8925 39.623 58.205C40.3001 58.5175 40.8548 58.955 41.2871 59.5175C41.7194 60.08 41.9876 60.7362 42.0918 61.4862H40.248C40.1074 60.9393 39.7949 60.455 39.3105 60.0331C38.8314 59.606 38.1855 59.3925 37.373 59.3925C36.6543 59.3925 36.0241 59.58 35.4824 59.955C34.946 60.3247 34.5267 60.8482 34.2246 61.5253C33.9277 62.1971 33.7793 62.9862 33.7793 63.8925C33.7793 64.8195 33.9251 65.6268 34.2168 66.3143C34.5137 67.0018 34.9303 67.5357 35.4668 67.9159C36.0085 68.2961 36.6439 68.4862 37.373 68.4862C37.8522 68.4862 38.2871 68.4029 38.6777 68.2362C39.0684 68.0695 39.3991 67.83 39.6699 67.5175C39.9408 67.205 40.1335 66.83 40.248 66.3925H42.0918C41.9876 67.1008 41.7298 67.7388 41.3184 68.3065C40.9121 68.869 40.373 69.3169 39.7012 69.6503C39.0345 69.9784 38.2585 70.1425 37.373 70.1425ZM49.6621 70.1425C48.5788 70.1425 47.6283 69.8846 46.8105 69.369C45.998 68.8534 45.3626 68.132 44.9043 67.205C44.4512 66.2779 44.2246 65.1945 44.2246 63.955C44.2246 62.705 44.4512 61.6138 44.9043 60.6815C45.3626 59.7492 45.998 59.0253 46.8105 58.5096C47.6283 57.994 48.5788 57.7362 49.6621 57.7362C50.7454 57.7362 51.6934 57.994 52.5059 58.5096C53.3236 59.0253 53.959 59.7492 54.4121 60.6815C54.8704 61.6138 55.0996 62.705 55.0996 63.955C55.0996 65.1945 54.8704 66.2779 54.4121 67.205C53.959 68.132 53.3236 68.8534 52.5059 69.369C51.6934 69.8846 50.7454 70.1425 49.6621 70.1425ZM49.6621 68.4862C50.485 68.4862 51.1621 68.2753 51.6934 67.8534C52.2246 67.4315 52.6178 66.8768 52.873 66.1893C53.1283 65.5018 53.2559 64.757 53.2559 63.955C53.2559 63.1529 53.1283 62.4055 52.873 61.7128C52.6178 61.0201 52.2246 60.4602 51.6934 60.0331C51.1621 59.606 50.485 59.3925 49.6621 59.3925C48.8392 59.3925 48.1621 59.606 47.6309 60.0331C47.0996 60.4602 46.7064 61.0201 46.4512 61.7128C46.196 62.4055 46.0684 63.1529 46.0684 63.955C46.0684 64.757 46.196 65.5018 46.4512 66.1893C46.7064 66.8768 47.0996 67.4315 47.6309 67.8534C48.1621 68.2753 48.8392 68.4862 49.6621 68.4862ZM58.1641 69.8925V53.8925H60.1016V68.1737H67.5391V69.8925H58.1641ZM72.2051 69.8925H70.1738L76.0488 53.8925H78.0488L83.9238 69.8925H81.8926L77.1113 56.4237H76.9863L72.2051 69.8925ZM72.9551 63.6425H81.1426V65.3612H72.9551V63.6425ZM86.416 69.8925V53.8925H92.0098C93.1243 53.8925 94.0436 54.0852 94.7676 54.4706C95.4915 54.8508 96.0306 55.3638 96.3848 56.0096C96.7389 56.6503 96.916 57.3612 96.916 58.1425C96.916 58.83 96.7936 59.3977 96.5488 59.8456C96.3092 60.2935 95.9915 60.6477 95.5957 60.9081C95.2051 61.1685 94.7806 61.3612 94.3223 61.4862V61.6425C94.8118 61.6737 95.304 61.8456 95.7988 62.1581C96.2936 62.4706 96.7077 62.9185 97.041 63.5018C97.3743 64.0852 97.541 64.7987 97.541 65.6425C97.541 66.4445 97.3587 67.1659 96.9941 67.8065C96.6296 68.4471 96.054 68.955 95.2676 69.33C94.4811 69.705 93.4577 69.8925 92.1973 69.8925H86.416ZM88.3535 68.1737H92.1973C93.4629 68.1737 94.3613 67.9289 94.8926 67.4393C95.429 66.9445 95.6973 66.3456 95.6973 65.6425C95.6973 65.1008 95.5592 64.6008 95.2832 64.1425C95.0072 63.6789 94.6139 63.3091 94.1035 63.0331C93.5931 62.7518 92.9889 62.6112 92.291 62.6112H88.3535V68.1737ZM88.3535 60.9237H91.9473C92.5306 60.9237 93.0566 60.8091 93.5254 60.58C93.9993 60.3508 94.3743 60.0279 94.6504 59.6112C94.9316 59.1945 95.0723 58.705 95.0723 58.1425C95.0723 57.4393 94.8275 56.843 94.3379 56.3534C93.8483 55.8586 93.0723 55.6112 92.0098 55.6112H88.3535V60.9237ZM108.506 62.6737V69.8925H106.662V57.8925H108.443V59.7675H108.6C108.881 59.1581 109.308 58.6685 109.881 58.2987C110.454 57.9237 111.193 57.7362 112.1 57.7362C112.912 57.7362 113.623 57.9029 114.232 58.2362C114.842 58.5643 115.316 59.0643 115.654 59.7362C115.993 60.4029 116.162 61.2466 116.162 62.2675V69.8925H114.318V62.3925C114.318 61.4497 114.074 60.7154 113.584 60.1893C113.094 59.6581 112.423 59.3925 111.568 59.3925C110.98 59.3925 110.454 59.5201 109.99 59.7753C109.532 60.0305 109.17 60.4029 108.904 60.8925C108.639 61.382 108.506 61.9758 108.506 62.6737ZM123.063 70.1737C122.302 70.1737 121.612 70.0305 120.992 69.744C120.372 69.4524 119.88 69.0331 119.516 68.4862C119.151 67.9341 118.969 67.2675 118.969 66.4862C118.969 65.7987 119.104 65.2414 119.375 64.8143C119.646 64.382 120.008 64.0435 120.461 63.7987C120.914 63.5539 121.414 63.3716 121.961 63.2518C122.513 63.1268 123.068 63.0279 123.625 62.955C124.354 62.8612 124.945 62.7909 125.398 62.744C125.857 62.6919 126.19 62.606 126.398 62.4862C126.612 62.3664 126.719 62.1581 126.719 61.8612V61.7987C126.719 61.0279 126.508 60.4289 126.086 60.0018C125.669 59.5747 125.036 59.3612 124.188 59.3612C123.307 59.3612 122.617 59.5539 122.117 59.9393C121.617 60.3247 121.266 60.7362 121.063 61.1737L119.313 60.5487C119.625 59.8195 120.042 59.2518 120.563 58.8456C121.089 58.4341 121.661 58.1477 122.281 57.9862C122.906 57.8195 123.521 57.7362 124.125 57.7362C124.51 57.7362 124.953 57.7831 125.453 57.8768C125.958 57.9654 126.445 58.1503 126.914 58.4315C127.388 58.7128 127.781 59.1372 128.094 59.705C128.406 60.2727 128.563 61.0331 128.563 61.9862V69.8925H126.719V68.2675H126.625C126.5 68.5279 126.292 68.8065 126 69.1034C125.708 69.4003 125.32 69.6529 124.836 69.8612C124.352 70.0695 123.76 70.1737 123.063 70.1737ZM123.344 68.5175C124.073 68.5175 124.688 68.3742 125.188 68.0878C125.693 67.8013 126.073 67.4315 126.328 66.9784C126.589 66.5253 126.719 66.0487 126.719 65.5487V63.8612C126.641 63.955 126.469 64.0409 126.203 64.119C125.943 64.1919 125.641 64.257 125.297 64.3143C124.958 64.3664 124.628 64.4133 124.305 64.455C123.987 64.4914 123.729 64.5227 123.531 64.5487C123.052 64.6112 122.604 64.7128 122.188 64.8534C121.776 64.9888 121.443 65.1945 121.188 65.4706C120.938 65.7414 120.813 66.1112 120.813 66.58C120.813 67.2206 121.049 67.705 121.523 68.0331C122.003 68.356 122.609 68.5175 123.344 68.5175ZM138.365 53.8925H140.678L146.115 67.1737H146.303L151.74 53.8925H154.053V69.8925H152.24V57.7362H152.084L147.084 69.8925H145.334L140.334 57.7362H140.178V69.8925H138.365V53.8925ZM157.688 69.8925V57.8925H159.531V69.8925H157.688ZM157.781 56.2675L159.688 52.6425H161.844L159.406 56.2675H157.781ZM167.439 70.1425C166.439 70.1425 165.557 69.8899 164.791 69.3846C164.025 68.8742 163.426 68.1555 162.994 67.2284C162.562 66.2961 162.346 65.1945 162.346 63.9237C162.346 62.6633 162.562 61.5695 162.994 60.6425C163.426 59.7154 164.028 58.9992 164.799 58.494C165.57 57.9888 166.46 57.7362 167.471 57.7362C168.252 57.7362 168.869 57.8664 169.322 58.1268C169.781 58.382 170.13 58.6737 170.369 59.0018C170.614 59.3247 170.804 59.5904 170.939 59.7987H171.096V53.8925H172.939V69.8925H171.158V68.0487H170.939C170.804 68.2675 170.611 68.5435 170.361 68.8768C170.111 69.205 169.755 69.4992 169.291 69.7596C168.827 70.0149 168.21 70.1425 167.439 70.1425ZM167.689 68.4862C168.429 68.4862 169.054 68.2935 169.564 67.9081C170.075 67.5175 170.463 66.9784 170.729 66.2909C170.994 65.5982 171.127 64.7987 171.127 63.8925C171.127 62.9966 170.997 62.2128 170.736 61.5409C170.476 60.8638 170.09 60.3378 169.58 59.9628C169.07 59.5826 168.439 59.3925 167.689 59.3925C166.908 59.3925 166.257 59.593 165.736 59.994C165.221 60.3899 164.833 60.9289 164.572 61.6112C164.317 62.2883 164.189 63.0487 164.189 63.8925C164.189 64.7466 164.32 65.5227 164.58 66.2206C164.846 66.9133 165.236 67.4654 165.752 67.8768C166.273 68.2831 166.919 68.4862 167.689 68.4862ZM176.572 69.8925V57.8925H178.416V69.8925H176.572ZM177.51 55.8925C177.15 55.8925 176.84 55.7701 176.58 55.5253C176.325 55.2805 176.197 54.9862 176.197 54.6425C176.197 54.2987 176.325 54.0044 176.58 53.7596C176.84 53.5149 177.15 53.3925 177.51 53.3925C177.869 53.3925 178.176 53.5149 178.432 53.7596C178.692 54.0044 178.822 54.2987 178.822 54.6425C178.822 54.9862 178.692 55.2805 178.432 55.5253C178.176 55.7701 177.869 55.8925 177.51 55.8925ZM185.324 70.1737C184.564 70.1737 183.874 70.0305 183.254 69.744C182.634 69.4524 182.142 69.0331 181.777 68.4862C181.413 67.9341 181.23 67.2675 181.23 66.4862C181.23 65.7987 181.366 65.2414 181.637 64.8143C181.908 64.382 182.27 64.0435 182.723 63.7987C183.176 63.5539 183.676 63.3716 184.223 63.2518C184.775 63.1268 185.329 63.0279 185.887 62.955C186.616 62.8612 187.207 62.7909 187.66 62.744C188.118 62.6919 188.452 62.606 188.66 62.4862C188.874 62.3664 188.98 62.1581 188.98 61.8612V61.7987C188.98 61.0279 188.77 60.4289 188.348 60.0018C187.931 59.5747 187.298 59.3612 186.449 59.3612C185.569 59.3612 184.879 59.5539 184.379 59.9393C183.879 60.3247 183.527 60.7362 183.324 61.1737L181.574 60.5487C181.887 59.8195 182.303 59.2518 182.824 58.8456C183.35 58.4341 183.923 58.1477 184.543 57.9862C185.168 57.8195 185.783 57.7362 186.387 57.7362C186.772 57.7362 187.215 57.7831 187.715 57.8768C188.22 57.9654 188.707 58.1503 189.176 58.4315C189.65 58.7128 190.043 59.1372 190.355 59.705C190.668 60.2727 190.824 61.0331 190.824 61.9862V69.8925H188.98V68.2675H188.887C188.762 68.5279 188.553 68.8065 188.262 69.1034C187.97 69.4003 187.582 69.6529 187.098 69.8612C186.613 70.0695 186.022 70.1737 185.324 70.1737ZM185.605 68.5175C186.335 68.5175 186.949 68.3742 187.449 68.0878C187.954 67.8013 188.335 67.4315 188.59 66.9784C188.85 66.5253 188.98 66.0487 188.98 65.5487V63.8612C188.902 63.955 188.73 64.0409 188.465 64.119C188.204 64.1919 187.902 64.257 187.559 64.3143C187.22 64.3664 186.889 64.4133 186.566 64.455C186.249 64.4914 185.991 64.5227 185.793 64.5487C185.314 64.6112 184.866 64.7128 184.449 64.8534C184.038 64.9888 183.704 65.1945 183.449 65.4706C183.199 65.7414 183.074 66.1112 183.074 66.58C183.074 67.2206 183.311 67.705 183.785 68.0331C184.264 68.356 184.871 68.5175 185.605 68.5175Z" fill="black"/>
<path d="M28.3448 20.4999H24.646C24.4272 19.436 24.0444 18.5013 23.4975 17.6959C22.9606 16.8905 22.3043 16.2144 21.5288 15.6675C20.7631 15.1107 19.913 14.6931 18.9783 14.4147C18.0437 14.1362 17.0692 13.997 16.055 13.997C14.2056 13.997 12.5302 14.4644 11.0288 15.399C9.53729 16.3337 8.34908 17.7108 7.46413 19.5304C6.58913 21.35 6.15163 23.5823 6.15163 26.2272C6.15163 28.872 6.58913 31.1043 7.46413 32.9239C8.34908 34.7435 9.53729 36.1206 11.0288 37.0553C12.5302 37.9899 14.2056 38.4573 16.055 38.4573C17.0692 38.4573 18.0437 38.3181 18.9783 38.0397C19.913 37.7612 20.7631 37.3486 21.5288 36.8017C22.3043 36.2449 22.9606 35.5638 23.4975 34.7584C24.0444 33.9431 24.4272 33.0084 24.646 31.9544H28.3448C28.0664 33.5155 27.5593 34.9125 26.8235 36.1455C26.0877 37.3784 25.1729 38.4274 24.0792 39.2925C22.9854 40.1476 21.7575 40.7989 20.3952 41.2463C19.043 41.6938 17.5962 41.9175 16.055 41.9175C13.4499 41.9175 11.1332 41.2811 9.10476 40.0084C7.07635 38.7357 5.48047 36.926 4.31712 34.5794C3.15376 32.2328 2.57209 29.4487 2.57209 26.2272C2.57209 23.0056 3.15376 20.2215 4.31712 17.8749C5.48047 15.5283 7.07635 13.7186 9.10476 12.4459C11.1332 11.1732 13.4499 10.5368 16.055 10.5368C17.5962 10.5368 19.043 10.7605 20.3952 11.208C21.7575 11.6554 22.9854 12.3117 24.0792 13.1767C25.1729 14.0318 26.0877 15.0759 26.8235 16.3088C27.5593 17.5318 28.0664 18.9289 28.3448 20.4999ZM37.3645 10.9544V41.4999H33.8446V10.9544H37.3645ZM43.8114 41.4999V18.5908H47.3313V41.4999H43.8114ZM45.6012 14.7726C44.9151 14.7726 44.3235 14.5389 43.8263 14.0716C43.3391 13.6043 43.0955 13.0425 43.0955 12.3862C43.0955 11.73 43.3391 11.1682 43.8263 10.7009C44.3235 10.2335 44.9151 9.99988 45.6012 9.99988C46.2873 9.99988 46.8739 10.2335 47.3612 10.7009C47.8583 11.1682 48.1069 11.73 48.1069 12.3862C48.1069 13.0425 47.8583 13.6043 47.3612 14.0716C46.8739 14.5389 46.2873 14.7726 45.6012 14.7726ZM53.7782 50.0908V18.5908H57.1788V22.23H57.5964C57.8549 21.8323 58.2129 21.3252 58.6703 20.7087C59.1376 20.0823 59.8038 19.5254 60.6689 19.0382C61.5439 18.5411 62.7271 18.2925 64.2186 18.2925C66.1476 18.2925 67.8478 18.7747 69.3194 19.7392C70.791 20.7037 71.9395 22.0709 72.7647 23.8408C73.59 25.6107 74.0027 27.6987 74.0027 30.105C74.0027 32.5311 73.59 34.6341 72.7647 36.4139C71.9395 38.1838 70.796 39.556 69.3343 40.5304C67.8727 41.4949 66.1873 41.9772 64.2782 41.9772C62.8066 41.9772 61.6284 41.7335 60.7434 41.2463C59.8585 40.7492 59.1774 40.1874 58.7001 39.561C58.2228 38.9246 57.8549 38.3976 57.5964 37.98H57.2981V50.0908H53.7782ZM57.2385 30.0453C57.2385 31.7754 57.492 33.3017 57.9991 34.6242C58.5062 35.9367 59.247 36.9658 60.2214 37.7115C61.1958 38.4473 62.389 38.8152 63.801 38.8152C65.2726 38.8152 66.5005 38.4274 67.4849 37.6519C68.4792 36.8664 69.225 35.8124 69.7221 34.4899C70.2292 33.1575 70.4828 31.676 70.4828 30.0453C70.4828 28.4345 70.2342 26.9828 69.737 25.6902C69.2498 24.3877 68.5091 23.3585 67.5147 22.6029C66.5304 21.8372 65.2924 21.4544 63.801 21.4544C62.3691 21.4544 61.166 21.8173 60.1916 22.5432C59.2172 23.2591 58.4814 24.2634 57.9842 25.556C57.487 26.8387 57.2385 28.3351 57.2385 30.0453ZM79.372 50.0908V18.5908H82.7725V22.23H83.1902C83.4487 21.8323 83.8066 21.3252 84.264 20.7087C84.7314 20.0823 85.3976 19.5254 86.2626 19.0382C87.1376 18.5411 88.3208 18.2925 89.8123 18.2925C91.7413 18.2925 93.4416 18.7747 94.9132 19.7392C96.3848 20.7037 97.5332 22.0709 98.3585 23.8408C99.1838 25.6107 99.5964 27.6987 99.5964 30.105C99.5964 32.5311 99.1838 34.6341 98.3585 36.4139C97.5332 38.1838 96.3897 39.556 94.9281 40.5304C93.4664 41.4949 91.7811 41.9772 89.872 41.9772C88.4004 41.9772 87.2221 41.7335 86.3372 41.2463C85.4522 40.7492 84.7711 40.1874 84.2939 39.561C83.8166 38.9246 83.4487 38.3976 83.1902 37.98H82.8919V50.0908H79.372ZM82.8322 30.0453C82.8322 31.7754 83.0858 33.3017 83.5929 34.6242C84.1 35.9367 84.8407 36.9658 85.8152 37.7115C86.7896 38.4473 87.9828 38.8152 89.3947 38.8152C90.8663 38.8152 92.0943 38.4274 93.0787 37.6519C94.073 36.8664 94.8187 35.8124 95.3159 34.4899C95.823 33.1575 96.0765 31.676 96.0765 30.0453C96.0765 28.4345 95.8279 26.9828 95.3308 25.6902C94.8436 24.3877 94.1028 23.3585 93.1085 22.6029C92.1241 21.8372 90.8862 21.4544 89.3947 21.4544C87.9629 21.4544 86.7598 21.8173 85.7853 22.5432C84.8109 23.2591 84.0751 24.2634 83.5779 25.556C83.0808 26.8387 82.8322 28.3351 82.8322 30.0453ZM104.966 41.4999V18.5908H108.486V41.4999H104.966ZM106.756 14.7726C106.069 14.7726 105.478 14.5389 104.981 14.0716C104.493 13.6043 104.25 13.0425 104.25 12.3862C104.25 11.73 104.493 11.1682 104.981 10.7009C105.478 10.2335 106.069 9.99988 106.756 9.99988C107.442 9.99988 108.028 10.2335 108.515 10.7009C109.013 11.1682 109.261 11.73 109.261 12.3862C109.261 13.0425 109.013 13.6043 108.515 14.0716C108.028 14.5389 107.442 14.7726 106.756 14.7726ZM118.452 27.7186V41.4999H114.933V18.5908H118.333V22.1703H118.631C119.168 21.007 119.984 20.0723 121.077 19.3664C122.171 18.6504 123.583 18.2925 125.313 18.2925C126.864 18.2925 128.222 18.6107 129.385 19.247C130.548 19.8735 131.453 20.828 132.099 22.1107C132.746 23.3834 133.069 24.9942 133.069 26.9431V41.4999H129.549V27.1817C129.549 25.382 129.082 23.98 128.147 22.9757C127.212 21.9615 125.93 21.4544 124.299 21.4544C123.175 21.4544 122.171 21.698 121.286 22.1852C120.411 22.6725 119.72 23.3834 119.213 24.3181C118.706 25.2527 118.452 26.3862 118.452 27.7186ZM148.748 50.5681C147.048 50.5681 145.586 50.3493 144.363 49.9118C143.14 49.4843 142.121 48.9175 141.306 48.2115C140.5 47.5155 139.859 46.7698 139.382 45.9743L142.186 44.0056C142.504 44.4232 142.906 44.9004 143.394 45.4374C143.881 45.9843 144.547 46.4566 145.392 46.8543C146.247 47.262 147.366 47.4658 148.748 47.4658C150.597 47.4658 152.124 47.0183 153.327 46.1235C154.53 45.2286 155.132 43.8266 155.132 41.9175V37.2641H154.833C154.575 37.6817 154.207 38.1987 153.73 38.8152C153.262 39.4218 152.586 39.9637 151.701 40.4409C150.826 40.9083 149.643 41.1419 148.151 41.1419C146.302 41.1419 144.642 40.7044 143.17 39.8294C141.708 38.9544 140.55 37.6817 139.695 36.0112C138.85 34.3408 138.427 32.3124 138.427 29.926C138.427 27.5794 138.84 25.5361 139.665 23.796C140.49 22.046 141.639 20.6938 143.11 19.7392C144.582 18.7747 146.282 18.2925 148.211 18.2925C149.703 18.2925 150.886 18.5411 151.761 19.0382C152.646 19.5254 153.322 20.0823 153.789 20.7087C154.267 21.3252 154.634 21.8323 154.893 22.23H155.251V18.5908H158.651V42.1561C158.651 44.1249 158.204 45.7257 157.309 46.9587C156.424 48.2016 155.231 49.1114 153.73 49.6881C152.238 50.2747 150.578 50.5681 148.748 50.5681ZM148.629 37.98C150.041 37.98 151.234 37.6568 152.208 37.0105C153.183 36.3642 153.923 35.4345 154.431 34.2215C154.938 33.0084 155.191 31.5567 155.191 29.8664C155.191 28.2158 154.943 26.7591 154.445 25.4963C153.948 24.2335 153.213 23.2442 152.238 22.5283C151.264 21.8124 150.061 21.4544 148.629 21.4544C147.137 21.4544 145.894 21.8323 144.9 22.5879C143.916 23.3436 143.175 24.3578 142.678 25.6306C142.191 26.9033 141.947 28.3152 141.947 29.8664C141.947 31.4573 142.195 32.8642 142.693 34.0872C143.2 35.3003 143.945 36.2548 144.93 36.9509C145.924 37.637 147.157 37.98 148.629 37.98Z" fill="black"/>
</svg>
