<?xml version="1.0" encoding="utf-8"?>
<!-- Generator: Adobe Illustrator 24.0.0, SVG Export Plug-In . SVG Version: 6.00 Build 0)  -->
<svg version="1.0" id="Camada_1" xmlns="http://www.w3.org/2000/svg" xmlns:xlink="http://www.w3.org/1999/xlink" x="0px" y="0px"
	 viewBox="0 0 142 54" style="enable-background:new 0 0 142 54;" xml:space="preserve">
<style type="text/css">
	.st0{enable-background:new    ;}
</style>
<g class="st0">
	<path d="M39.4,37.1c0,0.4-0.3,0.6-0.8,0.7c-0.7,0.1-1.1,0.3-1.3,0.5c-1.6,1.7-2.5,4-2.5,6.7c0,1.3,0.2,2.5,0.6,3.7
		c0.3,0.9,0.6,1.6,0.7,1.8c0.4,0.7,0.8,1.2,1.3,1.5c0.2,0.1,0.4,0.2,0.7,0.3c0.2,0.1,0.4,0.3,0.4,0.5c0,0.2-0.1,0.4-0.2,0.6
		c-0.2,0.2-0.3,0.3-0.5,0.2c-0.2,0-0.5-0.1-0.9-0.3c-0.7-0.4-1.5-1.3-2.3-2.6c-0.2-0.3-0.4-0.7-0.6-1c-0.2-0.4-0.4-0.7-0.5-1
		c-0.1-0.2-0.2-1.2-0.4-2.8c-0.1-0.5-0.1-1-0.1-1.5c0-2.6,0.8-4.8,2.3-6.6c0.9-1.1,1.8-1.6,2.8-1.6c0.4,0,0.8,0.1,1.1,0.4
		C39.3,36.7,39.4,36.9,39.4,37.1z"/>
	<path d="M46.5,45.6c-0.9,2-2.1,3.1-3.7,3.5c-0.2,0-0.4,0.1-0.6,0.1c-0.8,0-1.7-0.5-2.5-1.4c-0.6-0.6-0.9-1.4-0.9-2.4
		c0-1.1,0.3-2.3,1-3.5c0.3-0.5,0.6-1,1-1.4c0.5-0.5,0.9-0.7,1.3-0.7c0.2,0,0.5,0.1,0.7,0.3c0.2,0.2,0.8,0.4,1.6,0.7
		c0.7,0.2,1.2,0.6,1.5,1.2c0.5,1,0.8,1.8,0.8,2.5C46.8,45,46.7,45.3,46.5,45.6z M44.8,44.3c-0.1-1.1-0.4-1.7-0.9-1.9
		c-0.1,0-0.1,0-0.2,0c-0.2,0-0.4,0.1-0.7,0.4c-0.3,0.3-0.5,0.5-0.7,0.6c-0.1,0-0.2,0-0.4-0.1c-0.2-0.1-0.3-0.2-0.4-0.2
		c0,0-0.1,0-0.1,0c-0.5,0.4-0.8,1.1-0.8,2c0,0.6,0.1,1.2,0.4,1.6c0.4,0.6,0.8,0.9,1,0.9c0.6,0,1.3-0.4,1.9-1.2
		C44.6,45.6,44.9,44.9,44.8,44.3z"/>
	<path d="M53.9,47.8c0,0-0.9,0.6-2.6,1.8c-1,0.7-1.9,1.2-2.6,1.6c-0.1,0-0.2,0.1-0.3,0.1c-0.2,0-0.4-0.1-0.6-0.4
		c-0.3-0.4-0.4-0.5-0.4-0.6c0-1.3,0.1-3.1,0.2-5.4c0.2-2.5,0.3-4.2,0.3-5.3c0-0.7,0-1.5-0.1-2.1c0.2-0.2,0.4-0.3,0.7-0.3
		c0.6,0,0.9,0.2,1,0.6c0,1.2,0,3-0.2,5.4c-0.1,2.4-0.2,4.2-0.2,5.4c0.4-0.2,0.9-0.5,1.6-0.9c0.7-0.5,1.2-0.8,1.6-1
		c0.1,0,0.2,0,0.4,0c0.2,0,0.3,0,0.4,0c0.3,0,0.5,0.1,0.6,0.4C54,47.4,54,47.6,53.9,47.8z"/>
	<path d="M62.4,49.3c0.1,0.2,0.1,0.4,0.1,0.6c0,0.3-0.1,0.6-0.4,0.8S61.8,51,61.7,51c-0.7-0.1-1.2-0.7-1.4-1.7
		c-0.2-1.1-0.4-2-0.7-2.8c-0.5,0-1,0.1-1.5,0.1c-0.6,0.1-1,0.2-1.3,0.5c-0.2,0.5-0.4,1.3-0.6,2.4c-0.2,1.1-0.5,1.9-0.7,2.4
		c-0.1,0.3-0.4,0.3-0.7,0.2c-0.5-0.2-0.7-0.4-0.8-0.7c0-0.6,0.1-1.3,0.5-2.2c0.4-1.1,0.7-1.8,0.7-2.3c0-0.1-0.1-0.3-0.3-0.4
		c-0.2-0.2-0.3-0.3-0.3-0.4c0-0.1,0-0.2,0.1-0.2c0.1-0.1,0.2-0.1,0.5-0.2c0.2-0.1,0.4-0.1,0.4-0.2c0.3-0.7,0.7-2.1,1.3-4.1
		c0.5-1.7,0.9-3.1,1.3-4c0.1-0.2,0.3-0.3,0.5-0.3c0.2,0,0.4,0.1,0.5,0.2c0.4,0.4,0.7,0.9,0.8,1.6c0.1,0.6,0.2,1.2,0.2,1.8
		C60.9,44.2,61.6,47.1,62.4,49.3z M59.2,45.1c0-0.5-0.1-1.2-0.3-1.8c-0.1-0.6-0.3-1.2-0.4-1.8c-0.4,1.2-0.8,2.4-1.1,3.7
		C57.6,45.2,58.2,45.1,59.2,45.1z"/>
	<path d="M70.8,40.8c-0.2,0.8-0.7,1.5-1.5,2.2c-0.7,0.5-1.5,1-2.2,1.6c0,0.2,0.2,0.4,0.5,0.5c0.3,0.1,0.5,0.2,0.7,0.3
		c1.2,0.8,1.8,1.7,1.8,2.8c0,0.8-0.3,1.6-0.9,2.3c-0.4,0.5-1.1,1.1-2,1.6c-0.7,0.4-1.4,0.8-2.1,1.2c-0.2,0.1-0.4,0.2-0.6,0.2
		c-0.5,0-0.8-0.2-1-0.6c0-1.2,0.1-2.5,0.1-3.7c0-1.5,0.1-2.7,0.2-3.6c-0.3-0.2-0.5-0.4-0.5-0.7c0-0.1,0.1-0.3,0.2-0.4
		c0.1-0.1,0.3-0.2,0.5-0.4c0.2-2.2,0.2-4.3,0.1-6.2c-0.7-0.1-1.1-0.4-1.4-0.9c0-0.1,0-0.1,0.1-0.3s0.1-0.2,0.1-0.3
		c0.3-0.2,0.7-0.4,1.1-0.4c0.3,0,1,0.1,2,0.3c0.5,0.1,1.1,0.3,1.7,0.6c1.6,0.8,2.5,1.6,2.8,2.4C70.8,40,70.8,40.4,70.8,40.8z
		 M68,48.3c0-0.2,0-0.3,0-0.5c0-0.4-0.1-0.8-0.4-1.2c-0.7-0.4-1.2-0.5-1.4-0.5c-0.1,0-0.2,0-0.3,0.1c0,0.1,0,0.3,0,0.5
		c0,0.3,0,0.8-0.1,1.4c-0.1,0.6-0.1,1.1-0.1,1.4c0,0.5,0.1,0.9,0.2,1.3c0.2-0.2,0.5-0.4,0.8-0.6c0.4-0.2,0.6-0.4,0.8-0.6
		C67.7,49.3,67.9,48.9,68,48.3z M68.7,39.7c-0.1-0.5-0.5-1-1.3-1.3c-0.1,0-0.3-0.1-0.5-0.3c-0.2-0.1-0.3-0.2-0.4-0.2
		c-0.1,0-0.1,0-0.2,0c0,0.2,0,0.5,0,0.8c0,0.4,0,1,0.1,1.9c0,0.8,0.1,1.5,0,2c0.1,0,0.3-0.1,0.5-0.2c0.2-0.2,0.3-0.2,0.4-0.3
		c0.4-0.2,0.8-0.6,1.2-1C68.6,40.7,68.7,40.2,68.7,39.7z"/>
	<path d="M86.5,37.1c-0.2,2-0.4,3.9-0.6,5.9c-0.2,2.3-0.4,4.3-0.4,5.9c0,0.5,0,1,0,1.5c0,0.2-0.1,0.4-0.3,0.6
		c-0.2,0.2-0.4,0.3-0.6,0.3c-0.5,0-0.8-0.3-1.1-0.9c-0.9-1.8-2.1-4.7-3.5-8.6c0-0.1-0.1-0.1-0.1-0.1c-0.1,0-0.2,0.1-0.2,0.3
		c-0.2,2.1-0.4,4.3-0.4,6.6c0,1.1,0,2.3,0.1,3.4c0,0.4-0.1,0.7-0.4,0.9c-0.1,0.1-0.2,0.2-0.3,0.2c-0.1,0-0.2,0-0.4-0.1
		c-0.2-0.1-0.4-0.2-0.4-0.2c-0.2-0.1-0.3-0.2-0.4-0.5c0-0.2,0-0.5,0-0.7c0-0.8-0.1-1.7-0.1-2.6c0-1.6,0.1-3.5,0.3-5.8
		c0.3-3.5,0.4-5.5,0.5-5.9c0-0.3,0.3-0.5,0.8-0.5c0.2,0,0.6,0.2,1.1,0.6c0.5,0.9,1,2.3,1.7,4.4c0.7,1.9,1.3,3.4,1.8,4.4
		c0.2-2,0.6-4.9,1-8.8c0-0.3,0.3-0.4,0.6-0.4c0.1,0,0.3,0,0.5,0.1c0.2,0.1,0.4,0.1,0.4,0.1C86.3,36.8,86.4,36.9,86.5,37.1z"/>
	<path d="M95.5,49.3c0.1,0.2,0.1,0.4,0.1,0.6c0,0.3-0.1,0.6-0.4,0.8C95,50.9,94.9,51,94.8,51c-0.7-0.1-1.2-0.7-1.4-1.7
		c-0.2-1.1-0.4-2-0.7-2.8c-0.5,0-1,0.1-1.5,0.1c-0.6,0.1-1,0.2-1.3,0.5c-0.2,0.5-0.4,1.3-0.6,2.4c-0.2,1.1-0.5,1.9-0.7,2.4
		c-0.1,0.3-0.4,0.3-0.7,0.2c-0.5-0.2-0.7-0.4-0.8-0.7c0-0.6,0.1-1.3,0.5-2.2c0.4-1.1,0.7-1.8,0.7-2.3c0-0.1-0.1-0.3-0.3-0.4
		c-0.2-0.2-0.3-0.3-0.3-0.4c0-0.1,0-0.2,0.1-0.2c0.1-0.1,0.2-0.1,0.5-0.2s0.4-0.1,0.4-0.2c0.3-0.7,0.7-2.1,1.3-4.1
		c0.5-1.7,0.9-3.1,1.3-4c0.1-0.2,0.3-0.3,0.5-0.3c0.2,0,0.4,0.1,0.5,0.2c0.4,0.4,0.7,0.9,0.8,1.6c0.1,0.6,0.2,1.2,0.2,1.8
		C94,44.2,94.7,47.1,95.5,49.3z M92.3,45.1c0-0.5-0.1-1.2-0.3-1.8c-0.1-0.6-0.3-1.2-0.4-1.8c-0.4,1.2-0.8,2.4-1.1,3.7
		C90.7,45.2,91.3,45.1,92.3,45.1z"/>
	<path d="M112.6,50.8c0.1,0.3-0.2,0.5-0.6,0.5c-0.3,0-0.7-0.1-1-0.4c-0.3-0.2-0.5-0.7-0.7-1.2c-0.1-0.5-0.2-1.2-0.3-2.2
		c0-1.1-0.1-1.8-0.2-2.2c-0.2,0.7-0.5,1.6-0.9,2.9c-0.3,0.7-0.4,1.1-0.5,1.2c-0.2,0.5-0.5,0.7-0.9,0.6c-0.7-0.2-1.2-0.6-1.6-1.2
		c-0.2-0.4-0.5-1.1-0.7-2c-0.2-1-0.4-1.6-0.6-2c-0.6,3.1-1.3,5.4-2,6.9c-0.1,0.2-0.4,0.2-0.9,0c-0.4-0.2-0.6-0.5-0.6-0.9
		c0-0.1,0.2-0.6,0.5-1.4c0.1-0.4,0.6-2,1.5-5.1c0.3-1.1,0.6-2.9,1-5.6c0,0,0.1-0.2,0.2-0.5c0.1-0.2,0.2-0.3,0.4-0.3
		c0.5,0,0.8,0.1,1,0.3c0,0.4,0.1,1.1,0.2,2.1s0.2,1.7,0.2,2.1c0.1,0.8,0.3,1.6,0.4,2.5c0.2,0.9,0.5,1.7,0.9,2.3
		c1.4-3.9,2.3-7,2.7-9.3c0.1-0.2,0.3-0.4,0.7-0.4c0.5,0,0.9,0.2,0.9,0.5c0.1,0.5,0.2,1.1,0.2,1.8c0,0.2,0,0.7,0,1.5
		c0,0.6,0,1.1,0,1.5C111.9,46.1,112.2,48.7,112.6,50.8z"/>
	<path d="M117.6,34.7c-0.1,1.1-0.8,2.3-2.1,3.8c0.2,0,0.4,0.1,0.5,0.2c0.1,0,0.1-0.1,0.1-0.1c0,0,0.1,0.1,0.1,0.2c0,0.2,0,0.3,0,0.3
		c0,0,0,0.1,0.1,0.1c0,0.4,0,0.9,0,1.3c0,1-0.1,2.5-0.3,4.5c-0.2,2-0.3,3.5-0.3,4.6c0,0.4,0,0.8,0,1.1c-0.1,0.4-0.4,0.6-0.9,0.6
		c-0.6,0-1-0.3-1-0.8c-0.1-0.5-0.1-1.1-0.1-1.6c0-1,0.1-2.6,0.4-4.7c0.2-2,0.4-3.6,0.3-4.6c-0.1,0.2-0.3,0.3-0.4,0.4
		c-0.2,0.3-0.7,0.4-1.4,0.3c-0.2,0-0.3-0.2-0.3-0.4c0-0.1,0.1-0.4,0.2-0.7c0.4-0.7,0.9-1.6,1.7-2.7c1-1.4,1.6-2.3,1.8-2.7
		c0.1-0.1,0.2-0.2,0.4-0.2c0.2,0,0.5,0.1,0.7,0.3C117.5,34.3,117.6,34.5,117.6,34.7z"/>
	<path d="M123.8,45.5c-0.1,0.3-0.3,0.7-0.4,1c-0.2,0.4-0.4,0.7-0.6,0.9c-0.5,0.6-0.9,1.1-1.4,1.7c-0.5,0.7-1,1.1-1.5,1.4
		c-0.1,0.2-0.3,0.4-0.5,0.5s-0.4,0.3-0.5,0.3c-0.1,0-0.2,0-0.3-0.1s-0.2-0.1-0.4-0.2c-0.1-0.1-0.2-0.2-0.3-0.3c0-0.6-0.1-1.3-0.1-2
		c0-0.7,0-1.8,0.1-3.2s0.1-2.5,0.1-3.2c0-1,0-1.8-0.1-2.6c0,0-0.2-0.2-0.5-0.5c-0.2-0.2-0.3-0.4-0.3-0.5c0-0.1,0-0.1,0-0.2
		c0.1-0.2,0.2-0.3,0.5-0.3c0.2,0,0.4-0.1,0.6-0.1c1.2,0.3,2.5,1,3.9,2.1c0.4,0.3,0.6,0.6,0.9,0.9c0.7,1,1.1,2,1.1,2.9
		C124.1,44.7,124,45.1,123.8,45.5z M122.3,43.2c-0.1-0.9-0.9-1.7-2.4-2.4c-0.1,2.5-0.1,5-0.1,7.8c1.7-1.7,2.5-3.2,2.5-4.7
		C122.3,43.6,122.3,43.4,122.3,43.2z"/>
	<path d="M127.7,39.3c0,0.4,0,0.9,0,1.3c0,1-0.1,2.5-0.3,4.5c-0.2,2-0.3,3.5-0.3,4.6c0,0.4,0,0.8,0,1.1c-0.1,0.4-0.4,0.6-0.9,0.6
		c-0.6,0-1-0.3-1-0.8c-0.1-0.5-0.1-1.1-0.1-1.6c0-1,0.1-2.5,0.4-4.5c0.2-2,0.4-3.5,0.4-4.4c0-0.4,0-0.8,0-1.1
		c0.1-0.3,0.4-0.4,0.7-0.4c0.3,0,0.6,0.1,0.8,0.2c0.1,0,0.1-0.1,0.1-0.1c0,0,0.1,0.1,0.1,0.2C127.6,39,127.6,39.1,127.7,39.3
		C127.6,39.2,127.6,39.2,127.7,39.3z"/>
	<path d="M136.8,49.3c0.1,0.2,0.1,0.4,0.1,0.6c0,0.3-0.1,0.6-0.4,0.8c-0.2,0.2-0.4,0.3-0.5,0.3c-0.7-0.1-1.2-0.7-1.4-1.7
		c-0.2-1.1-0.4-2-0.7-2.8c-0.5,0-1,0.1-1.5,0.1c-0.6,0.1-1,0.2-1.3,0.5c-0.2,0.5-0.4,1.3-0.6,2.4c-0.2,1.1-0.5,1.9-0.7,2.4
		c-0.1,0.3-0.4,0.3-0.7,0.2c-0.5-0.2-0.7-0.4-0.8-0.7c0-0.6,0.1-1.3,0.5-2.2c0.4-1.1,0.7-1.8,0.7-2.3c0-0.1-0.1-0.3-0.3-0.4
		c-0.2-0.2-0.3-0.3-0.3-0.4c0-0.1,0-0.2,0.1-0.2c0.1-0.1,0.2-0.1,0.5-0.2s0.4-0.1,0.4-0.2c0.3-0.7,0.7-2.1,1.3-4.1
		c0.5-1.7,0.9-3.1,1.3-4c0.1-0.2,0.3-0.3,0.5-0.3c0.2,0,0.4,0.1,0.5,0.2c0.4,0.4,0.7,0.9,0.8,1.6c0.1,0.6,0.2,1.2,0.2,1.8
		C135.3,44.2,136.1,47.1,136.8,49.3z M133.6,45.1c0-0.5-0.1-1.2-0.3-1.8c-0.1-0.6-0.3-1.2-0.4-1.8c-0.4,1.2-0.8,2.4-1.1,3.7
		C132,45.2,132.6,45.1,133.6,45.1z"/>
</g>
<g class="st0">
	<path d="M18.2,23.6c0.5-0.6,1-0.8,1.6-0.3l2.9,2.1c0.6,0.5,0.8,1,0.3,1.6c-2,3-4.9,4.5-8.7,4.5C7.7,31.5,4,27.9,4,21.4v-8.7
		C4,6.2,7.7,2.6,14.3,2.6c3.9,0,6.8,1.5,8.7,4.5c0.4,0.6,0.3,1.1-0.3,1.6l-2.9,2.1c-0.6,0.4-1.2,0.3-1.6-0.3
		c-1.1-1.4-2.3-2.1-3.9-2.1c-2.5,0-3.8,1.6-3.8,4.9v7.7c0,3.2,1.3,4.9,3.8,4.9C15.8,25.8,17.1,25.1,18.2,23.6z"/>
	<path d="M27.2,31c-0.8,0-1.2-0.4-1.2-1.2V2.8c0-0.8,0.4-1.2,1.2-1.2h3.6C31.7,1.6,32,2,32,2.8v27.1c0,0.8-0.4,1.2-1.2,1.2H27.2z"/>
	<path d="M39.4,7.2c-1,0-1.8-0.3-2.4-0.9C36.3,5.7,36,4.8,36,3.9s0.3-1.8,0.9-2.4c0.6-0.6,1.5-1,2.4-1s1.8,0.3,2.4,1
		c0.6,0.6,1,1.4,1,2.4s-0.3,1.8-1,2.4C41.1,6.9,40.3,7.2,39.4,7.2z M37.6,31c-0.8,0-1.2-0.4-1.2-1.2V11.2c0-0.8,0.4-1.2,1.2-1.2h3.6
		c0.8,0,1.2,0.4,1.2,1.2v18.7c0,0.8-0.4,1.2-1.2,1.2H37.6z"/>
	<path d="M63.5,23.4c0,5.2-2.6,8.1-7.4,8.1c-1.5,0-2.7-0.4-3.6-1.2h-0.1v6.2c0,0.8-0.4,1.2-1.2,1.2h-3.6c-0.8,0-1.2-0.4-1.2-1.2v-19
		c0-5.2,3.1-8.1,8.5-8.1s8.5,2.9,8.5,8.1V23.4z M57.6,17.9c0-2.2-0.8-3.3-2.5-3.3s-2.5,1.1-2.5,3.3v5.2c0,2.2,0.8,3.3,2.5,3.3
		s2.5-1.1,2.5-3.3V17.9z"/>
	<path d="M84.1,23.4c0,5.2-2.6,8.1-7.4,8.1c-1.5,0-2.7-0.4-3.6-1.2h-0.1v6.2c0,0.8-0.4,1.2-1.2,1.2h-3.6c-0.8,0-1.2-0.4-1.2-1.2v-19
		c0-5.2,3.1-8.1,8.5-8.1c5.4,0,8.5,2.9,8.5,8.1V23.4z M78.1,17.9c0-2.2-0.8-3.3-2.5-3.3c-1.7,0-2.5,1.1-2.5,3.3v5.2
		c0,2.2,0.8,3.3,2.5,3.3c1.7,0,2.5-1.1,2.5-3.3V17.9z"/>
	<path d="M90.9,7.2c-1,0-1.8-0.3-2.4-0.9s-0.9-1.5-0.9-2.4s0.3-1.8,0.9-2.4s1.5-1,2.4-1c1,0,1.8,0.3,2.4,1c0.6,0.6,1,1.4,1,2.4
		s-0.3,1.8-1,2.4C92.6,6.9,91.8,7.2,90.9,7.2z M89.1,31c-0.8,0-1.2-0.4-1.2-1.2V11.2c0-0.8,0.4-1.2,1.2-1.2h3.6
		c0.8,0,1.2,0.4,1.2,1.2v18.7c0,0.8-0.4,1.2-1.2,1.2H89.1z"/>
	<path d="M108.7,17.7c0-2.1-0.8-3.1-2.4-3.1c-1.6,0-2.4,1-2.4,3.1v12.1c0,0.8-0.4,1.2-1.2,1.2h-3.6c-0.8,0-1.2-0.4-1.2-1.2V17.4
		c0-5.1,3-7.9,8.3-7.9s8.3,2.9,8.3,7.9v12.4c0,0.8-0.4,1.2-1.2,1.2h-3.6c-0.8,0-1.2-0.4-1.2-1.2V17.7z"/>
	<path d="M135.3,30.3c0,5-3.2,7.9-8.6,7.9c-2.8,0-5.1-0.7-6.9-2c-0.6-0.5-0.7-1-0.3-1.6l1.4-2.4c0.4-0.7,1-0.8,1.6-0.3
		c1.2,0.9,2.5,1.3,3.8,1.3c2,0,3-1,3-2.9v-0.8h-0.1c-0.9,0.8-2.1,1.2-3.6,1.2c-4.7,0-7.4-2.9-7.4-8.1v-5c0-5.2,3.1-8.1,8.5-8.1
		s8.5,2.9,8.5,8.1V30.3z M129.3,17.9c0-2.2-0.8-3.3-2.5-3.3s-2.5,1.1-2.5,3.3v4.3c0,2.2,0.8,3.3,2.5,3.3s2.5-1.1,2.5-3.3V17.9z"/>
</g>
</svg>
